HIERARCHY
ROOT Hips
{
 OFFSET 0.000000 0.000000 0.000000
 CHANNELS 6 Xposition Yposition Zposition Yrotation Xrotation Zrotation
 JOINT Chest
 {
  OFFSET 0.000000 9.585900 0.002600
  CHANNELS 3 Yrotation Xrotation Zrotation
  JOINT Chest2
  {
   OFFSET 0.000000 9.601200 -0.005300
   CHANNELS 3 Yrotation Xrotation Zrotation
   JOINT Chest3
   {
    OFFSET 0.000000 9.561800 0.000000
    CHANNELS 3 Yrotation Xrotation Zrotation
    JOINT Chest4
    {
     OFFSET 0.000000 9.552100 0.000000
     CHANNELS 3 Yrotation Xrotation Zrotation
     JOINT Neck
     {
      OFFSET 0.000000 14.453000 0.000000
      CHANNELS 3 Yrotation Xrotation Zrotation
      JOINT Head
      {
       OFFSET 0.000000 8.936500 -0.011300
       CHANNELS 3 Yrotation Xrotation Zrotation
       End Site
       {
        OFFSET 0.000000 17.073600 -0.006000
       }
      }
     }
     JOINT RightCollar
     {
      OFFSET -2.921100 9.558500 0.000000
      CHANNELS 3 Yrotation Xrotation Zrotation
      JOINT RightShoulder
      {
       OFFSET -13.519700 0.000000 0.000000
       CHANNELS 3 Yrotation Xrotation Zrotation
       JOINT RightElbow
       {
        OFFSET 0.000000 -29.696600 0.000000
        CHANNELS 3 Yrotation Xrotation Zrotation
        JOINT RightWrist
        {
         OFFSET 0.000000 -24.004700 0.000000
         CHANNELS 3 Yrotation Xrotation Zrotation
         End Site
         {
          OFFSET 0.000000 -17.728500 0.000000
         }
        }
       }
      }
     }
     JOINT LeftCollar
     {
      OFFSET 2.921100 9.558500 0.000000
      CHANNELS 3 Yrotation Xrotation Zrotation
      JOINT LeftShoulder
      {
       OFFSET 13.519700 0.000000 0.000000
       CHANNELS 3 Yrotation Xrotation Zrotation
       JOINT LeftElbow
       {
        OFFSET 0.000000 -29.696600 0.000000
        CHANNELS 3 Yrotation Xrotation Zrotation
        JOINT LeftWrist
        {
         OFFSET 0.000000 -24.004700 0.000000
         CHANNELS 3 Yrotation Xrotation Zrotation
         End Site
         {
          OFFSET 0.000000 -17.728500 0.000000
         }
        }
       }
      }
     }
    }
   }
  }
 }
 JOINT RightHip
 {
  OFFSET -7.771700 -0.012900 -0.001300
  CHANNELS 3 Yrotation Xrotation Zrotation
  JOINT RightKnee
  {
   OFFSET 0.000000 -40.869800 0.001200
   CHANNELS 3 Yrotation Xrotation Zrotation
   JOINT RightAnkle
   {
    OFFSET 0.000000 -39.717900 0.002100
    CHANNELS 3 Yrotation Xrotation Zrotation
    JOINT RightToe
    {
     OFFSET 0.000000 -4.965400 11.033500
     CHANNELS 3 Yrotation Xrotation Zrotation
     End Site
     {
      OFFSET 0.000000 -1.423100 5.872300
     }
    }
   }
  }
 }
 JOINT LeftHip
 {
  OFFSET 7.771700 -0.012900 -0.001300
  CHANNELS 3 Yrotation Xrotation Zrotation
  JOINT LeftKnee
  {
   OFFSET 0.000000 -40.869800 0.001200
   CHANNELS 3 Yrotation Xrotation Zrotation
   JOINT LeftAnkle
   {
    OFFSET 0.000000 -39.717900 0.002100
    CHANNELS 3 Yrotation Xrotation Zrotation
    JOINT LeftToe
    {
     OFFSET 0.000000 -4.965400 11.033500
     CHANNELS 3 Yrotation Xrotation Zrotation
     End Site
     {
      OFFSET 0.000000 -1.423100 5.872300
     }
    }
   }
  }
 }
}
MOTION
Frames: 5
Frame Time: 0.008333
-28.358790 48.348680 28.764829 -178.861910 -33.212746 -2.848775 -1.274600 14.311947 1.091884 -0.565916 8.193082 1.288706 -0.749266 10.220603 1.607585 -0.582624 8.193613 1.282075 0.235941 21.748185 -2.391528 1.124304 4.567399 -4.397288 6.171640 5.583807 -4.654847 -8.326663 -12.494849 -9.970541 -85.870884 -69.341509 101.983847 -2.116634 -11.776347 -28.107522 -4.016259 -1.403531 -3.999102 2.064745 -13.652293 -4.512241 31.797449 -86.231513 -62.407448 -1.699700 12.154462 24.491751 29.663591 -45.744453 -28.283515 -110.512684 64.574578 -103.610797 -1.886225 -1.646932 5.676821 -0.089654 -0.953881 0.348038 -11.377418 -50.982195 12.387666 110.271676 80.506405 105.950724 -5.055466 -9.973024 -2.647360 0.502650 0.892299 0.304513
-28.369616 48.347005 28.767868 -178.802420 -33.192461 -2.873386 -1.290641 14.303573 1.091662 -0.513691 8.211347 1.283118 -0.709400 10.239845 1.601247 -0.589418 8.190382 1.288360 0.178346 21.651278 -2.325921 0.969501 4.448679 -4.259485 6.223643 5.639314 -4.599555 -8.374246 -12.652364 -10.223382 -85.725821 -69.369681 101.803609 -2.100953 -11.778852 -28.201108 -3.950800 -1.304505 -4.049600 2.161189 -13.621100 -4.376153 16.809910 -87.450356 -47.100665 -1.973694 12.371076 24.569675 29.680116 -45.745334 -28.300636 -110.506599 64.559098 -103.615143 -1.911721 -1.622547 5.641969 -0.084770 -0.956825 0.307412 -11.433687 -51.011380 12.367771 110.197683 80.504341 105.879793 -5.049195 -9.946188 -2.657924 0.495450 0.892328 0.278812
-28.379944 48.346512 28.771450 -178.760008 -33.170445 -2.872760 -1.250543 14.301043 1.084685 -0.506142 8.223190 1.274293 -0.687830 10.248289 1.597653 -0.572178 8.197209 1.285178 0.099215 21.581452 -2.251826 0.797528 4.297870 -4.101413 6.265047 5.684239 -4.543384 -8.402420 -12.802513 -10.460391 -85.592430 -69.411654 101.621218 -2.082688 -11.765711 -28.277463 -3.892981 -1.223878 -4.090994 2.280691 -13.562976 -4.250368 -18.298129 -88.228942 -11.666340 -2.281983 12.612295 24.642975 29.692295 -45.747465 -28.344279 -110.507349 64.554227 -103.619426 -1.943777 -1.616462 5.627977 -0.058415 -0.952310 0.245713 -11.449972 -51.046392 12.280534 110.046245 80.475207 105.748954 -4.967672 -9.918610 -2.669842 0.438494 0.890037 0.250368
-28.382887 48.347600 28.775669 -178.719321 -33.144717 -2.895756 -1.216348 14.300545 1.092948 -0.486494 8.234913 1.268133 -0.663313 10.256614 1.592703 -0.552522 8.203897 1.280904 0.019010 21.518342 -2.171322 0.588155 4.126408 -3.920529 6.298041 5.720473 -4.489499 -8.423906 -12.945965 -10.680045 -85.475247 -69.462229 101.456121 -2.062555 -11.740685 -28.332120 -3.845959 -1.156820 -4.117673 2.423145 -13.482296 -4.143051 -63.294189 -87.910903 33.664906 -2.640622 12.881367 24.688660 29.731315 -45.754850 -28.353649 -110.502817 64.546171 -103.618785 -1.956596 -1.582921 5.554524 -0.083491 -0.961446 0.278275 -11.491833 -51.072288 12.265748 109.865942 80.477120 105.611796 -5.008326 -9.893594 -2.724053 0.500871 0.888761 0.269169
-28.380295 48.350360 28.780340 -178.700345 -33.116722 -2.920384 -1.156641 14.302489 1.114583 -0.472203 8.248864 1.260778 -0.636633 10.265937 1.587456 -0.531181 8.211436 1.276352 -0.075089 21.428588 -2.086752 0.349332 3.958617 -3.728872 6.325034 5.748992 -4.440934 -8.449439 -13.088644 -10.884856 -85.374214 -69.516301 101.320882 -2.041133 -11.708707 -28.364614 -3.807573 -1.107559 -4.129936 2.584285 -13.378351 -4.053993 -85.938538 -86.827171 56.646424 -3.045372 13.164789 24.683872 29.814785 -45.766001 -28.339834 -110.490470 64.532861 -103.606334 -2.021463 -1.524358 5.536562 -0.084977 -0.975673 0.280110 -11.532588 -51.096819 12.274037 109.679816 80.456171 105.464071 -5.042549 -9.877811 -2.763714 0.537150 0.892270 0.269432
